<svg width="22" height="21" viewBox="0 0 22 21" fill="none" xmlns="http://www.w3.org/2000/svg">
<path d="M5.06006 18.9125C6.27006 19.4625 7.81006 19.4625 9.02006 18.9125C10.2301 18.3625 11.7701 18.3625 12.9801 18.9125C14.1901 19.4625 15.7301 19.4625 16.9401 18.9125M11 1V3M3 11H1M5.31412 5.31412L3.8999 3.8999M16.6855 5.31412L18.0998 3.8999M21 11H19M6 11C6 8.23858 8.23858 6 11 6C13.7614 6 16 8.23858 16 11M1.1001 15.4125C2.3101 14.8625 3.8501 14.8625 5.0601 15.4125C6.2701 15.9625 7.8101 15.9625 9.0201 15.4125C10.2301 14.8625 11.7701 14.8625 12.9801 15.4125C14.1901 15.9625 15.7301 15.9625 16.9401 15.4125C18.1501 14.8625 19.6901 14.8625 20.9001 15.4125" stroke="white" stroke-width="2" stroke-linecap="round" stroke-linejoin="round"/>
</svg>
